<svg xmlns="http://www.w3.org/2000/svg" xmlns:xlink="http://www.w3.org/1999/xlink" xmlns:lucid="lucid" width="1700" height="780"><g transform="translate(0 0)" lucid:page-tab-id="0GkQC1QX7ytD"><path d="M20 340V26a6 6 0 0 1 6-6h35.67v320zM61.67 660H26a6 6 0 0 1-6-6V340h41.67z" stroke="#3a414a" fill="#fff"/><path d="M61.67 20H1654a6 6 0 0 1 6 6v314H61.67zM1660 340v314a6 6 0 0 1-6 6H61.67V340z" stroke="#3a414a" fill="none"/><use xlink:href="#a" transform="matrix(-1.8369701987210297e-16,-1,1,-1.8369701987210297e-16,20.00000000000003,340) translate(123.64197530864197 25.444444444444443)"/><use xlink:href="#b" transform="matrix(-1.8369701987210297e-16,-1,1,-1.8369701987210297e-16,20,660) translate(121.14197530864197 25.444444444444443)"/><path d="M140 146a6 6 0 0 1 6-6h148a6 6 0 0 1 6 6v68a6 6 0 0 1-6 6H146a6 6 0 0 1-6-6z" stroke="#e81313" fill="#fff"/><use xlink:href="#c" transform="matrix(1,0,0,1,152,152) translate(29.790123456790127 31.77777777777778)"/><use xlink:href="#d" transform="matrix(1,0,0,1,152,152) translate(80.34567901234568 31.77777777777778)"/><path d="M400 146a6 6 0 0 1 6-6h148a6 6 0 0 1 6 6v68a6 6 0 0 1-6 6H406a6 6 0 0 1-6-6z" stroke="#e81313" fill="#fff"/><use xlink:href="#c" transform="matrix(1,0,0,1,412,152) translate(29.790123456790127 31.77777777777778)"/><use xlink:href="#e" transform="matrix(1,0,0,1,412,152) translate(80.34567901234568 31.77777777777778)"/><path d="M300.96 180h82.2" stroke="#e81313" fill="none"/><path d="M300.98 180.5h-.52v-1h.52z" stroke="#e81313" stroke-width=".05" fill="#e81313"/><path d="M397.92 180l-14.27 4.64v-9.28z" stroke="#e81313" fill="#e81313"/><path d="M400 466a6 6 0 0 1 6-6h148a6 6 0 0 1 6 6v68a6 6 0 0 1-6 6H406a6 6 0 0 1-6-6z" stroke="#635dff" fill="#fff"/><use xlink:href="#f" transform="matrix(1,0,0,1,412,472) translate(28.555555555555557 31.77777777777778)"/><use xlink:href="#g" transform="matrix(1,0,0,1,412,472) translate(79.11111111111111 31.77777777777778)"/><path d="M480 459.04V236.85" stroke="#e81313" fill="none"/><path d="M480.5 459.54h-1v-.52h1z" stroke="#e81313" stroke-width=".05" fill="#e81313"/><path d="M480 222.08l4.64 14.27h-9.28z" stroke="#e81313" fill="#e81313"/><use xlink:href="#h" transform="matrix(1,0,0,1,488.0000000000001,244.3176004130152) translate(0 14.222222222222223)"/><use xlink:href="#i" transform="matrix(1,0,0,1,488.0000000000001,244.3176004130152) translate(0 35.55555555555556)"/><use xlink:href="#j" transform="matrix(1,0,0,1,488.0000000000001,244.3176004130152) translate(0 56.88888888888889)"/><use xlink:href="#k" transform="matrix(1,0,0,1,488.0000000000001,244.3176004130152) translate(37.48148148148149 56.88888888888889)"/><path d="M660 466a6 6 0 0 1 6-6h148a6 6 0 0 1 6 6v68a6 6 0 0 1-6 6H666a6 6 0 0 1-6-6z" stroke="#635dff" fill="#fff"/><use xlink:href="#f" transform="matrix(1,0,0,1,672,472) translate(28.555555555555557 31.77777777777778)"/><use xlink:href="#l" transform="matrix(1,0,0,1,672,472) translate(79.11111111111111 31.77777777777778)"/><path d="M920 466a6 6 0 0 1 6-6h148a6 6 0 0 1 6 6v68a6 6 0 0 1-6 6H926a6 6 0 0 1-6-6z" stroke="#635dff" fill="#fff"/><use xlink:href="#f" transform="matrix(1,0,0,1,932,472) translate(28.555555555555557 31.77777777777778)"/><use xlink:href="#m" transform="matrix(1,0,0,1,932,472) translate(79.11111111111111 31.77777777777778)"/><path d="M920 145.9a6 6 0 0 1 6-6h148a6 6 0 0 1 6 6v68a6 6 0 0 1-6 6H926a6 6 0 0 1-6-6z" stroke="#e81313" fill="#fff"/><use xlink:href="#c" transform="matrix(1,0,0,1,932,151.90724117295034) translate(29.790123456790127 31.77777777777778)"/><use xlink:href="#n" transform="matrix(1,0,0,1,932,151.90724117295034) translate(80.34567901234568 31.77777777777778)"/><path d="M560.96 180h179a.05.05 0 0 0 .04-.05.05.05 0 0 1 .05-.04h163.1" stroke="#e81313" fill="none"/><path d="M560.98 180.5h-.52v-1h.52z" stroke="#e81313" stroke-width=".05" fill="#e81313"/><path d="M917.92 179.9l-14.27 4.64v-9.27z" stroke="#e81313" fill="#e81313"/><path d="M1000 459.04v-222.3" stroke="#e81313" fill="none"/><path d="M1000.5 459.54h-1v-.52h1z" stroke="#e81313" stroke-width=".05" fill="#e81313"/><path d="M1000 222l4.64 14.25h-9.28z" stroke="#e81313" fill="#e81313"/><use xlink:href="#h" transform="matrix(1,0,0,1,1008,237.6992147743801) translate(0 14.222222222222223)"/><use xlink:href="#o" transform="matrix(1,0,0,1,1008,237.6992147743801) translate(0 35.55555555555556)"/><use xlink:href="#j" transform="matrix(1,0,0,1,1008,237.6992147743801) translate(0 56.88888888888889)"/><use xlink:href="#k" transform="matrix(1,0,0,1,1008,237.6992147743801) translate(37.48148148148149 56.88888888888889)"/><path d="M1600 548.23c0 6.62-26.86 12-60 12s-60-5.38-60-12v-96c0-6.63 26.86-12 60-12s60 5.37 60 12z" stroke="#3a414a" fill="#fff"/><path d="M1600 452.23c0 6.62-26.86 12-60 12s-60-5.38-60-12" stroke="#3a414a" fill="none"/><use xlink:href="#p" transform="matrix(1,0,0,1,1485,469.22591262716935) translate(20.49382716049383 17.77777777777778)"/><use xlink:href="#q" transform="matrix(1,0,0,1,1485,469.22591262716935) translate(2.5617283950617207 44.44444444444444)"/><use xlink:href="#r" transform="matrix(1,0,0,1,1485,469.22591262716935) translate(22.345679012345684 71.11111111111111)"/><path d="M1340 238.24c0 8.05-26.86 14.58-60 14.58s-60-6.53-60-14.58V121.57c0-8.05 26.86-14.58 60-14.58s60 6.52 60 14.57z" stroke="#3a414a" fill="#fff"/><path d="M1340 121.57c0 8.06-26.86 14.6-60 14.6s-60-6.54-60-14.6" stroke="#3a414a" fill="none"/><use xlink:href="#s" transform="matrix(1,0,0,1,1225,141.15724117295034) translate(31.60493827160494 17.94444444444445)"/><use xlink:href="#t" transform="matrix(1,0,0,1,1225,141.15724117295034) translate(-3.024691358024697 44.611111111111114)"/><use xlink:href="#u" transform="matrix(1,0,0,1,1225,141.15724117295034) translate(19.876543209876544 71.27777777777779)"/><use xlink:href="#r" transform="matrix(1,0,0,1,1225,141.15724117295034) translate(22.345679012345684 97.94444444444446)"/><path d="M1600 228c0 6.63-26.86 12-60 12s-60-5.37-60-12v-96c0-6.63 26.86-12 60-12s60 5.37 60 12z" stroke="#3a414a" fill="#fff"/><path d="M1600 132c0 6.63-26.86 12-60 12s-60-5.37-60-12" stroke="#3a414a" fill="none"/><use xlink:href="#v" transform="matrix(1,0,0,1,1485,149) translate(1.9753086419753103 33.90277777777778)"/><use xlink:href="#r" transform="matrix(1,0,0,1,1485,149) translate(22.345679012345684 60.56944444444445)"/><path d="M1080.96 179.9h5.48m5.47 0h1.1m5.48 0h10.95m5.47 0h1.1m5.47 0h10.95m5.47 0h1.1m5.46 0h5.5l.02-.02v-.04h.02v-.02h4.22m4.23 0h.84m4.2 0h8.43m4.22 0h.84m4.2 0h8.43m4.22 0h.84m4.2 0h4.22" stroke="#3a414a" fill="none"/><path d="M1080.98 180.4h-.52v-1h.52z" stroke="#3a414a" stroke-width=".05" fill="#3a414a"/><path d="M1217.88 179.8l-14.26 4.65v-9.27z" stroke="#3a414a" fill="#3a414a"/><use xlink:href="#w" transform="matrix(1,0,0,1,1133.6257204345623,154.48114901256736) translate(0 14.222222222222223)"/><path d="M1340.96 500h4.85m4.86 0h.97m4.84 0h9.7m4.85 0h.97m4.83 0h9.7m4.85 0h.97m4.84 0h9.7m4.83 0h.97m4.85 0h9.7m4.84 0h.96m4.85 0h9.7m4.85 0h.97m4.85 0h4.85" stroke="#3a414a" fill="none"/><path d="M1340.98 500.5h-.52v-1h.52z" stroke="#3a414a" stroke-width=".05" fill="#3a414a"/><path d="M1477.88 500l-14.26 4.64v-9.28z" stroke="#3a414a" fill="#3a414a"/><use xlink:href="#w" transform="matrix(1,0,0,1,1380.4262075634156,474.66666666666663) translate(0 14.222222222222223)"/><path d="M1341 179.9h5.47m5.48 0h1.1m5.46 0h10.96m5.47 0h1.1m5.47 0h10.94m5.47 0h1.1m5.48 0H1409.97v.02h.02v.06h.02v.02h4.22m4.22 0h.85m4.22 0h8.42m4.22 0h.84m4.2 0h8.44m4.2 0h.85m4.2 0h4.22" stroke="#3a414a" fill="none"/><path d="M1341 180.4h-.5v-1h.5z" stroke="#3a414a" stroke-width=".05" fill="#3a414a"/><path d="M1477.88 180l-14.26 4.64v-9.28z" stroke="#3a414a" fill="#3a414a"/><use xlink:href="#x" transform="matrix(1,0,0,1,1374.0278498473851,154.57434418085398) translate(0 14.222222222222223)"/><path d="M560.96 500h82.2" stroke="#635dff" fill="none"/><path d="M560.98 500.5h-.52v-1h.52z" stroke="#635dff" stroke-width=".05" fill="#635dff"/><path d="M657.92 500l-14.27 4.64v-9.28z" stroke="#635dff" fill="#635dff"/><path d="M820.96 500h82.2" stroke="#635dff" fill="none"/><path d="M820.98 500.5h-.52v-1h.52z" stroke="#635dff" stroke-width=".05" fill="#635dff"/><path d="M917.92 500l-14.27 4.64v-9.28z" stroke="#635dff" fill="#635dff"/><path d="M140 466.23a6 6 0 0 1 6-6h148a6 6 0 0 1 6 6v68a6 6 0 0 1-6 6H146a6 6 0 0 1-6-6z" stroke="#635dff" fill="#fff"/><use xlink:href="#f" transform="matrix(1,0,0,1,152,472.22591262716935) translate(28.555555555555557 31.77777777777778)"/><use xlink:href="#y" transform="matrix(1,0,0,1,152,472.22591262716935) translate(79.11111111111111 31.77777777777778)"/><g fill="none"><path d="M1074 680.45a6 6 0 0 1 6 6V734a6 6 0 0 1-6 6H406a6 6 0 0 1-6-6v-47.55a6 6 0 0 1 6-6z"/><path d="M400 680.45c0 5.52 4.48 10 10 10h320c5.52 0 10 4.48 10 10 0-5.52 4.48-10 10-10h320c5.52 0 10-4.48 10-10" stroke="#3a414a"/></g><use xlink:href="#z" transform="matrix(1,-2.4492935982947064e-16,2.4492935982947064e-16,1,405.00000000000006,715.4518252543387) translate(283.46 17.77777777777778)"/><use xlink:href="#A" transform="matrix(1,-2.4492935982947064e-16,2.4492935982947064e-16,1,405.00000000000006,715.4518252543387) translate(333.9538271604938 17.77777777777778)"/><path d="M650 339.95c0 143.57-76.1 259.96-170 259.96S310 483.53 310 339.96C310 196.4 386.1 80 480 80s170 116.4 170 259.95z" fill="#fff" fill-opacity="0"/><path d="M648.14 377.83l-1.23 11.72-2.3 15.7-1.93 10.1m-4.12 18.5l-.25 1.07-3.87 13.88-4.28 13.17-3 8.05m-7.22 17.53l-4.44 9.43-5.3 10.15-5.44 9.4-2.8 4.4m-10.77 15.6l-3.08 4.04-5.56 6.72-5.52 6.13-5.48 5.6-5.43 5.1-.45.38m-14.84 11.8l-.57.43-5.15 3.42-5.08 3.08-5.02 2.76-4.95 2.45-4.9 2.18-4.86 1.92-3.06 1.08m-18.36 4.67l-2.34.4-4.7.6-4.73.38-4.73.2-2.37.03-4.75-.1-4.72-.3-4.72-.5-4.68-.68m-18.36-4.68l-.67-.22-4.84-1.8-4.87-2.05-4.94-2.32-5-2.6-5.03-2.92-5.12-3.24-3.13-2.2m-14.83-11.8l-3.18-2.87-5.45-5.34-5.5-5.88-5.54-6.42-5.57-7.03-.32-.43m-10.8-15.58l-5.47-9.04-5.36-9.78-5.23-10.53-1.8-4.06m-7.28-17.5l-.7-1.78-4.46-12.8-4.08-13.53-2.08-8.1m-4.2-18.48l-.52-2.48-2.6-15.42-2.02-15.94-.3-3.67m-1.33-18.92l-.44-10.48-.1-8.47.35-16.88.13-2.08m1.38-18.92l1.23-11.73 2.3-15.68 1.93-10.1m4.12-18.52l.25-1.06 3.87-13.9 4.28-13.16 3-8.05m7.22-17.54l4.44-9.43 5.3-10.16 5.44-9.4 2.8-4.4m10.77-15.58l3.08-4.06 5.56-6.72 5.52-6.14 5.48-5.6 5.43-5.1.45-.38m14.84-11.8l.57-.43 5.15-3.42 5.08-3.07 5.02-2.76 4.95-2.46 4.9-2.2 4.86-1.9 3.06-1.08m18.36-4.67l2.34-.4 4.7-.58 4.73-.4 4.73-.2L480 80l4.75.1 4.72.3 4.72.5 4.68.7m18.36 4.67l.67.22 4.84 1.78 4.87 2.05 4.94 2.32 5 2.6 5.03 2.93 5.12 3.24 3.13 2.2m14.83 11.8l3.18 2.86 5.45 5.34 5.5 5.87 5.54 6.4 5.57 7.04.32.42m10.8 15.6l5.47 9.03 5.36 9.76 5.23 10.53 1.8 4.07m7.28 17.5l.7 1.77 4.46 12.8 4.08 13.53 2.08 8.1m4.2 18.5l.52 2.47 2.6 15.42 2.02 15.93.3 3.68m1.33 18.92l.44 10.5.1 8.45-.35 16.9-.13 2.06" stroke="#ba23f6" stroke-width="4" fill="none"/><path d="M300.96 500.23h82.2" stroke="#635dff" fill="none"/><path d="M300.98 500.73h-.52v-1h.52z" stroke="#635dff" stroke-width=".05" fill="#635dff"/><path d="M397.92 500.23l-14.27 4.63v-9.27z" stroke="#635dff" fill="#635dff"/><g fill="none"><path d="M1334 678.95a6 6 0 0 1 6 6v47.55a6 6 0 0 1-6 6h-148a6 6 0 0 1-6-6v-47.55a6 6 0 0 1 6-6z"/><path d="M1180 678.95c0 5.52 4.48 10 10 10h60c5.52 0 10 4.47 10 10 0-5.53 4.48-10 10-10h60c5.52 0 10-4.48 10-10" stroke="#3a414a"/></g><g><use xlink:href="#B" transform="matrix(1,-2.4492935982947064e-16,2.4492935982947064e-16,1,1185,713.9473684210526) translate(28.24074074074074 17.77777777777778)"/><use xlink:href="#A" transform="matrix(1,-2.4492935982947064e-16,2.4492935982947064e-16,1,1185,713.9473684210526) translate(46.04938271604938 44.44444444444444)"/></g><path d="M1180 466a6 6 0 0 1 6-6h148a6 6 0 0 1 6 6v68a6 6 0 0 1-6 6h-148a6 6 0 0 1-6-6z" stroke="#635dff" fill="#fff"/><g><use xlink:href="#f" transform="matrix(1,0,0,1,1192,472) translate(28.555555555555557 31.77777777777778)"/><use xlink:href="#C" transform="matrix(1,0,0,1,1192,472) translate(79.11111111111111 31.77777777777778)"/></g><path d="M1080.96 500h82.2" stroke="#635dff" fill="none"/><path d="M1080.98 500.5h-.52v-1h.52z" stroke="#635dff" stroke-width=".05" fill="#635dff"/><path d="M1177.92 500l-14.27 4.64v-9.28z" stroke="#635dff" fill="#635dff"/><path d="M430 26a6 6 0 0 1 6-6h108a6 6 0 0 1 6 6v48a6 6 0 0 1-6 6H436a6 6 0 0 1-6-6z" stroke="#000" stroke-opacity="0" fill="#fff" fill-opacity="0"/><g><use xlink:href="#D" transform="matrix(1,0,0,1,435,25) translate(0 30.2734375)"/></g><path d="M1170 339.95c0 143.57-76.1 259.96-170 259.96S830 483.53 830 339.96C830 196.4 906.1 80 1000 80s170 116.4 170 259.95z" fill="#fff" fill-opacity="0"/><path d="M1168.14 377.83l-1.23 11.72-2.3 15.7-1.93 10.1m-4.12 18.5l-.25 1.07-3.87 13.88-4.28 13.17-3 8.05m-7.22 17.53l-4.44 9.43-5.3 10.15-5.44 9.4-2.8 4.4m-10.77 15.6l-3.08 4.04-5.56 6.72-5.52 6.13-5.48 5.6-5.43 5.1-.45.38m-14.84 11.8l-.57.43-5.15 3.42-5.08 3.08-5.02 2.76-4.95 2.45-4.9 2.18-4.86 1.92-3.06 1.08m-18.36 4.67l-2.34.4-4.7.6-4.73.38-4.73.2-2.37.03-4.75-.1-4.72-.3-4.72-.5-4.68-.68m-18.36-4.68l-.67-.22-4.84-1.8-4.87-2.05-4.94-2.32-5-2.6-5.03-2.92-5.12-3.24-3.13-2.2m-14.83-11.8l-3.18-2.87-5.45-5.34-5.5-5.88-5.54-6.42-5.57-7.03-.32-.43m-10.8-15.58l-5.47-9.04-5.36-9.78-5.23-10.53-1.8-4.06m-7.28-17.5l-.7-1.78-4.46-12.8-4.08-13.53-2.08-8.1m-4.2-18.48l-.52-2.48-2.6-15.42-2.02-15.94-.3-3.67m-1.33-18.92l-.44-10.48-.1-8.47.35-16.88.13-2.08m1.38-18.92l1.23-11.73 2.3-15.68 1.93-10.1m4.12-18.52l.25-1.06 3.87-13.9 4.28-13.16 3-8.05m7.22-17.54l4.44-9.43 5.3-10.16 5.44-9.4 2.8-4.4m10.77-15.58l3.08-4.06 5.56-6.72 5.52-6.14 5.48-5.6 5.43-5.1.45-.38m14.84-11.8l.57-.43 5.15-3.42 5.08-3.07 5.02-2.76 4.95-2.46 4.9-2.2 4.86-1.9 3.06-1.08m18.36-4.67l2.34-.4 4.7-.58 4.73-.4 4.73-.2L1000 80l4.75.1 4.72.3 4.72.5 4.68.7m18.36 4.67l.67.22 4.84 1.78 4.87 2.05 4.94 2.32 5 2.6 5.03 2.93 5.12 3.24 3.13 2.2m14.83 11.8l3.18 2.86 5.45 5.34 5.5 5.87 5.54 6.4 5.57 7.04.32.42m10.8 15.6l5.47 9.03 5.36 9.76 5.23 10.53 1.8 4.07m7.28 17.5l.7 1.77 4.46 12.8 4.08 13.53 2.08 8.1m4.2 18.5l.52 2.47 2.6 15.42 2.02 15.93.3 3.68m1.33 18.92l.44 10.5.1 8.45-.35 16.9-.13 2.06" stroke="#ba23f6" stroke-width="4" fill="none"/><path d="M940 26a6 6 0 0 1 6-6h108a6 6 0 0 1 6 6v48a6 6 0 0 1-6 6H946a6 6 0 0 1-6-6z" stroke="#000" stroke-opacity="0" fill="#fff" fill-opacity="0"/><g><use xlink:href="#D" transform="matrix(1,0,0,1,945,25) translate(0 30.2734375)"/></g><defs><path fill="#3a414a" d="M114-163C36-179 61-72 57 0H25l-1-190h30c1 12-1 29 2 39 6-27 23-49 58-41v29" id="E"/><path fill="#3a414a" d="M100-194c63 0 86 42 84 106H49c0 40 14 67 53 68 26 1 43-12 49-29l28 8c-11 28-37 45-77 45C44 4 14-33 15-96c1-61 26-98 85-98zm52 81c6-60-76-77-97-28-3 7-6 17-6 28h103" id="F"/><path fill="#3a414a" d="M24 0v-261h32V0H24" id="G"/><path fill="#3a414a" d="M141-36C126-15 110 5 73 4 37 3 15-17 15-53c-1-64 63-63 125-63 3-35-9-54-41-54-24 1-41 7-42 31l-33-3c5-37 33-52 76-52 45 0 72 20 72 64v82c-1 20 7 32 28 27v20c-31 9-61-2-59-35zM48-53c0 20 12 33 32 33 41-3 63-29 60-74-43 2-92-5-92 41" id="H"/><path fill="#3a414a" d="M135-143c-3-34-86-38-87 0 15 53 115 12 119 90S17 21 10-45l28-5c4 36 97 45 98 0-10-56-113-15-118-90-4-57 82-63 122-42 12 7 21 19 24 35" id="I"/><g id="a"><use transform="matrix(0.06172839506172839,0,0,0.06172839506172839,0,0)" xlink:href="#E"/><use transform="matrix(0.06172839506172839,0,0,0.06172839506172839,7.345679012345679,0)" xlink:href="#F"/><use transform="matrix(0.06172839506172839,0,0,0.06172839506172839,19.691358024691358,0)" xlink:href="#G"/><use transform="matrix(0.06172839506172839,0,0,0.06172839506172839,24.5679012345679,0)" xlink:href="#F"/><use transform="matrix(0.06172839506172839,0,0,0.06172839506172839,36.913580246913575,0)" xlink:href="#H"/><use transform="matrix(0.06172839506172839,0,0,0.06172839506172839,49.25925925925925,0)" xlink:href="#I"/><use transform="matrix(0.06172839506172839,0,0,0.06172839506172839,60.37037037037037,0)" xlink:href="#F"/></g><path fill="#3a414a" d="M85-194c31 0 48 13 60 33l-1-100h32l1 261h-30c-2-10 0-23-3-31C134-8 116 4 85 4 32 4 16-35 15-94c0-66 23-100 70-100zm9 24c-40 0-46 34-46 75 0 40 6 74 45 74 42 0 51-32 51-76 0-42-9-74-50-73" id="J"/><path fill="#3a414a" d="M108 0H70L1-190h34L89-25l56-165h34" id="K"/><path fill="#3a414a" d="M100-194c62-1 85 37 85 99 1 63-27 99-86 99S16-35 15-95c0-66 28-99 85-99zM99-20c44 1 53-31 53-75 0-43-8-75-51-75s-53 32-53 75 10 74 51 75" id="L"/><path fill="#3a414a" d="M115-194c55 1 70 41 70 98S169 2 115 4C84 4 66-9 55-30l1 105H24l-1-265h31l2 30c10-21 28-34 59-34zm-8 174c40 0 45-34 45-75s-6-73-45-74c-42 0-51 32-51 76 0 43 10 73 51 73" id="M"/><g id="b"><use transform="matrix(0.06172839506172839,0,0,0.06172839506172839,0,0)" xlink:href="#J"/><use transform="matrix(0.06172839506172839,0,0,0.06172839506172839,12.345679012345679,0)" xlink:href="#F"/><use transform="matrix(0.06172839506172839,0,0,0.06172839506172839,24.691358024691358,0)" xlink:href="#K"/><use transform="matrix(0.06172839506172839,0,0,0.06172839506172839,35.80246913580247,0)" xlink:href="#F"/><use transform="matrix(0.06172839506172839,0,0,0.06172839506172839,48.148148148148145,0)" xlink:href="#G"/><use transform="matrix(0.06172839506172839,0,0,0.06172839506172839,53.02469135802469,0)" xlink:href="#L"/><use transform="matrix(0.06172839506172839,0,0,0.06172839506172839,65.37037037037037,0)" xlink:href="#M"/></g><path fill="#e81313" d="M185-189c-5-48-123-54-124 2 14 75 158 14 163 119 3 78-121 87-175 55-17-10-28-26-33-46l33-7c5 56 141 63 141-1 0-78-155-14-162-118-5-82 145-84 179-34 5 7 8 16 11 25" id="N"/><path fill="#e81313" d="M197 0v-115H63V0H30v-248h33v105h134v-105h34V0h-34" id="O"/><path fill="#e81313" d="M205 0l-28-72H64L36 0H1l101-248h38L239 0h-34zm-38-99l-47-123c-12 45-31 82-46 123h93" id="P"/><g id="c"><use transform="matrix(0.06172839506172839,0,0,0.06172839506172839,0,0)" xlink:href="#N"/><use transform="matrix(0.06172839506172839,0,0,0.06172839506172839,14.814814814814813,0)" xlink:href="#O"/><use transform="matrix(0.06172839506172839,0,0,0.06172839506172839,30.80246913580247,0)" xlink:href="#P"/></g><path fill="#e81313" d="M63-220v92h138v28H63V0H30v-248h175v28H63" id="Q"/><path fill="#e81313" d="M27 0v-27h64v-190l-56 39v-29l58-41h29v221h61V0H27" id="R"/><g id="d"><use transform="matrix(0.06172839506172839,0,0,0.06172839506172839,0,0)" xlink:href="#Q"/><use transform="matrix(0.06172839506172839,0,0,0.06172839506172839,13.518518518518517,0)" xlink:href="#R"/></g><path fill="#e81313" d="M101-251c82-7 93 87 43 132L82-64C71-53 59-42 53-27h129V0H18c2-99 128-94 128-182 0-28-16-43-45-43s-46 15-49 41l-32-3c6-41 34-60 81-64" id="S"/><g id="e"><use transform="matrix(0.06172839506172839,0,0,0.06172839506172839,0,0)" xlink:href="#Q"/><use transform="matrix(0.06172839506172839,0,0,0.06172839506172839,13.518518518518517,0)" xlink:href="#S"/></g><path fill="#635dff" d="M185-189c-5-48-123-54-124 2 14 75 158 14 163 119 3 78-121 87-175 55-17-10-28-26-33-46l33-7c5 56 141 63 141-1 0-78-155-14-162-118-5-82 145-84 179-34 5 7 8 16 11 25" id="T"/><path fill="#635dff" d="M197 0v-115H63V0H30v-248h33v105h134v-105h34V0h-34" id="U"/><path fill="#635dff" d="M205 0l-28-72H64L36 0H1l101-248h38L239 0h-34zm-38-99l-47-123c-12 45-31 82-46 123h93" id="V"/><g id="f"><use transform="matrix(0.06172839506172839,0,0,0.06172839506172839,0,0)" xlink:href="#T"/><use transform="matrix(0.06172839506172839,0,0,0.06172839506172839,14.814814814814813,0)" xlink:href="#U"/><use transform="matrix(0.06172839506172839,0,0,0.06172839506172839,30.80246913580247,0)" xlink:href="#V"/></g><path fill="#635dff" d="M30-248c118-7 216 8 213 122C240-48 200 0 122 0H30v-248zM63-27c89 8 146-16 146-99s-60-101-146-95v194" id="W"/><path fill="#635dff" d="M101-251c82-7 93 87 43 132L82-64C71-53 59-42 53-27h129V0H18c2-99 128-94 128-182 0-28-16-43-45-43s-46 15-49 41l-32-3c6-41 34-60 81-64" id="X"/><g id="g"><use transform="matrix(0.06172839506172839,0,0,0.06172839506172839,0,0)" xlink:href="#W"/><use transform="matrix(0.06172839506172839,0,0,0.06172839506172839,15.987654320987653,0)" xlink:href="#X"/></g><path fill="#e81313" d="M147 0H94L2-248h55l64 206c17-72 42-137 63-206h54" id="Y"/><path fill="#e81313" d="M25-224v-37h50v37H25zM25 0v-190h50V0H25" id="Z"/><path fill="#e81313" d="M133-34C117-15 103 5 69 4 32 3 11-16 11-54c-1-60 55-63 116-61 1-26-3-47-28-47-18 1-26 9-28 27l-52-2c7-38 36-58 82-57s74 22 75 68l1 82c-1 14 12 18 25 15v27c-30 8-71 5-69-32zm-48 3c29 0 43-24 42-57-32 0-66-3-65 30 0 17 8 27 23 27" id="aa"/><g id="h"><use transform="matrix(0.04938271604938272,0,0,0.04938271604938272,0,0)" xlink:href="#Y"/><use transform="matrix(0.04938271604938272,0,0,0.04938271604938272,11.506172839506174,0)" xlink:href="#Z"/><use transform="matrix(0.04938271604938272,0,0,0.04938271604938272,16.444444444444446,0)" xlink:href="#aa"/></g><path fill="#e81313" d="M240-174c0 40-23 61-54 70L253 0h-59l-57-94H76V0H24v-248c93 4 217-23 216 74zM76-134c48-2 112 12 112-38 0-48-66-32-112-35v73" id="ab"/><path fill="#e81313" d="M185-48c-13 30-37 53-82 52C43 2 14-33 14-96s30-98 90-98c62 0 83 45 84 108H66c0 31 8 55 39 56 18 0 30-7 34-22zm-45-69c5-46-57-63-70-21-2 6-4 13-4 21h74" id="ac"/><path fill="#e81313" d="M25 0v-261h50V0H25" id="ad"/><path fill="#e81313" d="M137-138c1-29-70-34-71-4 15 46 118 7 119 86 1 83-164 76-172 9l43-7c4 19 20 25 44 25 33 8 57-30 24-41C81-84 22-81 20-136c-2-80 154-74 161-7" id="ae"/><g id="i"><use transform="matrix(0.04938271604938272,0,0,0.04938271604938272,0,0)" xlink:href="#ab"/><use transform="matrix(0.04938271604938272,0,0,0.04938271604938272,12.790123456790125,0)" xlink:href="#ac"/><use transform="matrix(0.04938271604938272,0,0,0.04938271604938272,22.66666666666667,0)" xlink:href="#ad"/><use transform="matrix(0.04938271604938272,0,0,0.04938271604938272,27.604938271604947,0)" xlink:href="#ac"/><use transform="matrix(0.04938271604938272,0,0,0.04938271604938272,37.48148148148149,0)" xlink:href="#aa"/><use transform="matrix(0.04938271604938272,0,0,0.04938271604938272,47.35802469135803,0)" xlink:href="#ae"/><use transform="matrix(0.04938271604938272,0,0,0.04938271604938272,57.23456790123457,0)" xlink:href="#ac"/></g><path fill="#e81313" d="M24-248c93 1 206-16 204 79-1 75-69 88-152 82V0H24v-248zm52 121c47 0 100 7 100-41 0-47-54-39-100-39v80" id="af"/><path fill="#e81313" d="M85 4C-2 5 27-109 22-190h50c7 57-23 150 33 157 60-5 35-97 40-157h50l1 190h-47c-2-12 1-28-3-38-12 25-28 42-61 42" id="ag"/><g id="j"><use transform="matrix(0.04938271604938272,0,0,0.04938271604938272,0,0)" xlink:href="#af"/><use transform="matrix(0.04938271604938272,0,0,0.04938271604938272,11.851851851851853,0)" xlink:href="#ag"/><use transform="matrix(0.04938271604938272,0,0,0.04938271604938272,22.666666666666668,0)" xlink:href="#ad"/><use transform="matrix(0.04938271604938272,0,0,0.04938271604938272,27.60493827160494,0)" xlink:href="#ad"/></g><path fill="#e81313" d="M84 4C32 4 15-41 15-95c0-55 18-99 73-99 29 0 47 12 58 34l2-30h48l-1 265h-49V-32C136-9 114 4 84 4zm21-34c32 0 41-29 41-66 0-36-9-64-40-64-33 0-39 30-40 65 0 43 13 65 39 65" id="ah"/><path fill="#e81313" d="M115-3C79 11 28 4 28-45v-112H4v-33h27l15-45h31v45h36v33H77v99c-1 23 16 31 38 25v30" id="ai"/><g id="k"><use transform="matrix(0.04938271604938272,0,0,0.04938271604938272,0,0)" xlink:href="#ab"/><use transform="matrix(0.04938271604938272,0,0,0.04938271604938272,12.790123456790125,0)" xlink:href="#ac"/><use transform="matrix(0.04938271604938272,0,0,0.04938271604938272,22.66666666666667,0)" xlink:href="#ah"/><use transform="matrix(0.04938271604938272,0,0,0.04938271604938272,33.48148148148149,0)" xlink:href="#ag"/><use transform="matrix(0.04938271604938272,0,0,0.04938271604938272,44.296296296296305,0)" xlink:href="#ac"/><use transform="matrix(0.04938271604938272,0,0,0.04938271604938272,54.17283950617284,0)" xlink:href="#ae"/><use transform="matrix(0.04938271604938272,0,0,0.04938271604938272,64.0493827160494,0)" xlink:href="#ai"/></g><path fill="#635dff" d="M126-127c33 6 58 20 58 59 0 88-139 92-164 29-3-8-5-16-6-25l32-3c6 27 21 44 54 44 32 0 52-15 52-46 0-38-36-46-79-43v-28c39 1 72-4 72-42 0-27-17-43-46-43-28 0-47 15-49 41l-32-3c6-42 35-63 81-64 48-1 79 21 79 65 0 36-21 52-52 59" id="aj"/><g id="l"><use transform="matrix(0.06172839506172839,0,0,0.06172839506172839,0,0)" xlink:href="#W"/><use transform="matrix(0.06172839506172839,0,0,0.06172839506172839,15.987654320987653,0)" xlink:href="#aj"/></g><path fill="#635dff" d="M155-56V0h-30v-56H8v-25l114-167h33v167h35v25h-35zm-30-156c-27 46-58 90-88 131h88v-131" id="ak"/><g id="m"><use transform="matrix(0.06172839506172839,0,0,0.06172839506172839,0,0)" xlink:href="#W"/><use transform="matrix(0.06172839506172839,0,0,0.06172839506172839,15.987654320987653,0)" xlink:href="#ak"/></g><path fill="#e81313" d="M126-127c33 6 58 20 58 59 0 88-139 92-164 29-3-8-5-16-6-25l32-3c6 27 21 44 54 44 32 0 52-15 52-46 0-38-36-46-79-43v-28c39 1 72-4 72-42 0-27-17-43-46-43-28 0-47 15-49 41l-32-3c6-42 35-63 81-64 48-1 79 21 79 65 0 36-21 52-52 59" id="al"/><g id="n"><use transform="matrix(0.06172839506172839,0,0,0.06172839506172839,0,0)" xlink:href="#Q"/><use transform="matrix(0.06172839506172839,0,0,0.06172839506172839,13.518518518518517,0)" xlink:href="#al"/></g><g id="o"><use transform="matrix(0.04938271604938272,0,0,0.04938271604938272,0,0)" xlink:href="#ab"/><use transform="matrix(0.04938271604938272,0,0,0.04938271604938272,12.790123456790125,0)" xlink:href="#ac"/><use transform="matrix(0.04938271604938272,0,0,0.04938271604938272,22.66666666666667,0)" xlink:href="#ad"/><use transform="matrix(0.04938271604938272,0,0,0.04938271604938272,27.604938271604947,0)" xlink:href="#ac"/><use transform="matrix(0.04938271604938272,0,0,0.04938271604938272,37.48148148148149,0)" xlink:href="#aa"/><use transform="matrix(0.04938271604938272,0,0,0.04938271604938272,47.35802469135803,0)" xlink:href="#ae"/><use transform="matrix(0.04938271604938272,0,0,0.04938271604938272,57.23456790123457,0)" xlink:href="#ac"/></g><path fill="#3a414a" d="M140-251c81 0 123 46 123 126C263-53 228-8 163 1c7 30 30 48 69 40v23c-55 16-95-15-103-61C56-3 17-48 17-125c0-80 42-126 123-126zm0 227c63 0 89-41 89-101s-29-99-89-99c-61 0-89 39-89 99S79-25 140-24" id="am"/><path fill="#3a414a" d="M84 4C-5 8 30-112 23-190h32v120c0 31 7 50 39 49 72-2 45-101 50-169h31l1 190h-30c-1-10 1-25-2-33-11 22-28 36-60 37" id="an"/><path fill="#3a414a" d="M24-231v-30h32v30H24zM24 0v-190h32V0H24" id="ao"/><path fill="#3a414a" d="M59-47c-2 24 18 29 38 22v24C64 9 27 4 27-40v-127H5v-23h24l9-43h21v43h35v23H59v120" id="ap"/><path fill="#3a414a" d="M179-190L93 31C79 59 56 82 12 73V49c39 6 53-20 64-50L1-190h34L92-34l54-156h33" id="aq"/><g id="p"><use transform="matrix(0.06172839506172839,0,0,0.06172839506172839,0,0)" xlink:href="#am"/><use transform="matrix(0.06172839506172839,0,0,0.06172839506172839,17.28395061728395,0)" xlink:href="#an"/><use transform="matrix(0.06172839506172839,0,0,0.06172839506172839,29.629629629629626,0)" xlink:href="#H"/><use transform="matrix(0.06172839506172839,0,0,0.06172839506172839,41.9753086419753,0)" xlink:href="#G"/><use transform="matrix(0.06172839506172839,0,0,0.06172839506172839,46.85185185185185,0)" xlink:href="#ao"/><use transform="matrix(0.06172839506172839,0,0,0.06172839506172839,51.72839506172839,0)" xlink:href="#ap"/><use transform="matrix(0.06172839506172839,0,0,0.06172839506172839,57.901234567901234,0)" xlink:href="#aq"/></g><path fill="#3a414a" d="M205 0l-28-72H64L36 0H1l101-248h38L239 0h-34zm-38-99l-47-123c-12 45-31 82-46 123h93" id="ar"/><path fill="#3a414a" d="M117-194c89-4 53 116 60 194h-32v-121c0-31-8-49-39-48C34-167 62-67 57 0H25l-1-190h30c1 10-1 24 2 32 11-22 29-35 61-36" id="as"/><path fill="#3a414a" d="M96-169c-40 0-48 33-48 73s9 75 48 75c24 0 41-14 43-38l32 2c-6 37-31 61-74 61-59 0-76-41-82-99-10-93 101-131 147-64 4 7 5 14 7 22l-32 3c-4-21-16-35-41-35" id="at"/><g id="q"><use transform="matrix(0.06172839506172839,0,0,0.06172839506172839,0,0)" xlink:href="#ar"/><use transform="matrix(0.06172839506172839,0,0,0.06172839506172839,14.814814814814813,0)" xlink:href="#I"/><use transform="matrix(0.06172839506172839,0,0,0.06172839506172839,25.925925925925924,0)" xlink:href="#I"/><use transform="matrix(0.06172839506172839,0,0,0.06172839506172839,37.03703703703704,0)" xlink:href="#an"/><use transform="matrix(0.06172839506172839,0,0,0.06172839506172839,49.382716049382715,0)" xlink:href="#E"/><use transform="matrix(0.06172839506172839,0,0,0.06172839506172839,56.72839506172839,0)" xlink:href="#H"/><use transform="matrix(0.06172839506172839,0,0,0.06172839506172839,69.07407407407408,0)" xlink:href="#as"/><use transform="matrix(0.06172839506172839,0,0,0.06172839506172839,81.41975308641976,0)" xlink:href="#at"/><use transform="matrix(0.06172839506172839,0,0,0.06172839506172839,92.53086419753087,0)" xlink:href="#F"/></g><path fill="#3a414a" d="M185-189c-5-48-123-54-124 2 14 75 158 14 163 119 3 78-121 87-175 55-17-10-28-26-33-46l33-7c5 56 141 63 141-1 0-78-155-14-162-118-5-82 145-84 179-34 5 7 8 16 11 25" id="au"/><g id="r"><use transform="matrix(0.06172839506172839,0,0,0.06172839506172839,0,0)" xlink:href="#au"/><use transform="matrix(0.06172839506172839,0,0,0.06172839506172839,14.814814814814813,0)" xlink:href="#F"/><use transform="matrix(0.06172839506172839,0,0,0.06172839506172839,27.160493827160494,0)" xlink:href="#E"/><use transform="matrix(0.06172839506172839,0,0,0.06172839506172839,34.50617283950617,0)" xlink:href="#K"/><use transform="matrix(0.06172839506172839,0,0,0.06172839506172839,45.61728395061728,0)" xlink:href="#F"/><use transform="matrix(0.06172839506172839,0,0,0.06172839506172839,57.962962962962955,0)" xlink:href="#E"/></g><path fill="#3a414a" d="M232-93c-1 65-40 97-104 97C67 4 28-28 28-90v-158h33c8 89-33 224 67 224 102 0 64-133 71-224h33v155" id="av"/><g id="s"><use transform="matrix(0.06172839506172839,0,0,0.06172839506172839,0,0)" xlink:href="#av"/><use transform="matrix(0.06172839506172839,0,0,0.06172839506172839,15.987654320987653,0)" xlink:href="#I"/><use transform="matrix(0.06172839506172839,0,0,0.06172839506172839,27.098765432098766,0)" xlink:href="#F"/><use transform="matrix(0.06172839506172839,0,0,0.06172839506172839,39.44444444444444,0)" xlink:href="#E"/></g><g id="t"><use transform="matrix(0.06172839506172839,0,0,0.06172839506172839,0,0)" xlink:href="#ar"/><use transform="matrix(0.06172839506172839,0,0,0.06172839506172839,14.814814814814813,0)" xlink:href="#at"/><use transform="matrix(0.06172839506172839,0,0,0.06172839506172839,25.925925925925924,0)" xlink:href="#at"/><use transform="matrix(0.06172839506172839,0,0,0.06172839506172839,37.03703703703704,0)" xlink:href="#F"/><use transform="matrix(0.06172839506172839,0,0,0.06172839506172839,49.382716049382715,0)" xlink:href="#M"/><use transform="matrix(0.06172839506172839,0,0,0.06172839506172839,61.72839506172839,0)" xlink:href="#ap"/><use transform="matrix(0.06172839506172839,0,0,0.06172839506172839,67.90123456790123,0)" xlink:href="#H"/><use transform="matrix(0.06172839506172839,0,0,0.06172839506172839,80.24691358024691,0)" xlink:href="#as"/><use transform="matrix(0.06172839506172839,0,0,0.06172839506172839,92.5925925925926,0)" xlink:href="#at"/><use transform="matrix(0.06172839506172839,0,0,0.06172839506172839,103.70370370370371,0)" xlink:href="#F"/></g><path fill="#3a414a" d="M127-220V0H93v-220H8v-28h204v28h-85" id="aw"/><path fill="#3a414a" d="M177-190C167-65 218 103 67 71c-23-6-38-20-44-43l32-5c15 47 100 32 89-28v-30C133-14 115 1 83 1 29 1 15-40 15-95c0-56 16-97 71-98 29-1 48 16 59 35 1-10 0-23 2-32h30zM94-22c36 0 50-32 50-73 0-42-14-75-50-75-39 0-46 34-46 75s6 73 46 73" id="ax"/><g id="u"><use transform="matrix(0.06172839506172839,0,0,0.06172839506172839,0,0)" xlink:href="#aw"/><use transform="matrix(0.06172839506172839,0,0,0.06172839506172839,11.049382716049381,0)" xlink:href="#F"/><use transform="matrix(0.06172839506172839,0,0,0.06172839506172839,23.39506172839506,0)" xlink:href="#I"/><use transform="matrix(0.06172839506172839,0,0,0.06172839506172839,34.50617283950617,0)" xlink:href="#ap"/><use transform="matrix(0.06172839506172839,0,0,0.06172839506172839,40.67901234567901,0)" xlink:href="#ao"/><use transform="matrix(0.06172839506172839,0,0,0.06172839506172839,45.55555555555556,0)" xlink:href="#as"/><use transform="matrix(0.06172839506172839,0,0,0.06172839506172839,57.901234567901234,0)" xlink:href="#ax"/></g><path fill="#3a414a" d="M30-248c87 1 191-15 191 75 0 78-77 80-158 76V0H30v-248zm33 125c57 0 124 11 124-50 0-59-68-47-124-48v98" id="ay"/><g id="v"><use transform="matrix(0.06172839506172839,0,0,0.06172839506172839,0,0)" xlink:href="#ay"/><use transform="matrix(0.06172839506172839,0,0,0.06172839506172839,14.814814814814813,0)" xlink:href="#E"/><use transform="matrix(0.06172839506172839,0,0,0.06172839506172839,22.160493827160494,0)" xlink:href="#L"/><use transform="matrix(0.06172839506172839,0,0,0.06172839506172839,34.50617283950617,0)" xlink:href="#J"/><use transform="matrix(0.06172839506172839,0,0,0.06172839506172839,46.85185185185185,0)" xlink:href="#an"/><use transform="matrix(0.06172839506172839,0,0,0.06172839506172839,59.197530864197525,0)" xlink:href="#at"/><use transform="matrix(0.06172839506172839,0,0,0.06172839506172839,70.30864197530863,0)" xlink:href="#ap"/><use transform="matrix(0.06172839506172839,0,0,0.06172839506172839,76.48148148148147,0)" xlink:href="#ao"/><use transform="matrix(0.06172839506172839,0,0,0.06172839506172839,81.35802469135801,0)" xlink:href="#L"/><use transform="matrix(0.06172839506172839,0,0,0.06172839506172839,93.7037037037037,0)" xlink:href="#as"/></g><path fill="#333" d="M24-248c120-7 223 5 221 122C244-46 201 0 124 0H24v-248zM76-40c74 7 117-18 117-86 0-67-45-88-117-82v168" id="az"/><path fill="#333" d="M185-48c-13 30-37 53-82 52C43 2 14-33 14-96s30-98 90-98c62 0 83 45 84 108H66c0 31 8 55 39 56 18 0 30-7 34-22zm-45-69c5-46-57-63-70-21-2 6-4 13-4 21h74" id="aA"/><path fill="#333" d="M135-194c53 0 70 44 70 98 0 56-19 98-73 100-31 1-45-17-59-34 3 33 2 69 2 105H25l-1-265h48c2 10 0 23 3 31 11-24 29-35 60-35zM114-30c33 0 39-31 40-66 0-38-9-64-40-64-56 0-55 130 0 130" id="aB"/><path fill="#333" d="M25 0v-261h50V0H25" id="aC"/><path fill="#333" d="M110-194c64 0 96 36 96 99 0 64-35 99-97 99-61 0-95-36-95-99 0-62 34-99 96-99zm-1 164c35 0 45-28 45-65 0-40-10-65-43-65-34 0-45 26-45 65 0 36 10 65 43 65" id="aD"/><path fill="#333" d="M123 10C108 53 80 86 19 72V37c35 8 53-11 59-39L3-190h52l48 148c12-52 28-100 44-148h51" id="aE"/><g id="w"><use transform="matrix(0.04938271604938272,0,0,0.04938271604938272,0,0)" xlink:href="#az"/><use transform="matrix(0.04938271604938272,0,0,0.04938271604938272,12.790123456790125,0)" xlink:href="#aA"/><use transform="matrix(0.04938271604938272,0,0,0.04938271604938272,22.66666666666667,0)" xlink:href="#aB"/><use transform="matrix(0.04938271604938272,0,0,0.04938271604938272,33.48148148148149,0)" xlink:href="#aC"/><use transform="matrix(0.04938271604938272,0,0,0.04938271604938272,38.41975308641976,0)" xlink:href="#aD"/><use transform="matrix(0.04938271604938272,0,0,0.04938271604938272,49.23456790123458,0)" xlink:href="#aE"/></g><path fill="#333" d="M24-248c93 1 206-16 204 79-1 75-69 88-152 82V0H24v-248zm52 121c47 0 100 7 100-41 0-47-54-39-100-39v80" id="aF"/><path fill="#333" d="M135-150c-39-12-60 13-60 57V0H25l-1-190h47c2 13-1 29 3 40 6-28 27-53 61-41v41" id="aG"/><path fill="#333" d="M220-157c-53 9-28 100-34 157h-49v-107c1-27-5-49-29-50C55-147 81-57 75 0H25l-1-190h47c2 12-1 28 3 38 10-53 101-56 108 0 13-22 24-43 59-42 82 1 51 116 57 194h-49v-107c-1-25-5-48-29-50" id="aH"/><path fill="#333" d="M115-3C79 11 28 4 28-45v-112H4v-33h27l15-45h31v45h36v33H77v99c-1 23 16 31 38 25v30" id="aI"/><g id="x"><use transform="matrix(0.04938271604938272,0,0,0.04938271604938272,0,0)" xlink:href="#aF"/><use transform="matrix(0.04938271604938272,0,0,0.04938271604938272,11.851851851851853,0)" xlink:href="#aG"/><use transform="matrix(0.04938271604938272,0,0,0.04938271604938272,18.765432098765434,0)" xlink:href="#aD"/><use transform="matrix(0.04938271604938272,0,0,0.04938271604938272,29.58024691358025,0)" xlink:href="#aH"/><use transform="matrix(0.04938271604938272,0,0,0.04938271604938272,45.382716049382715,0)" xlink:href="#aD"/><use transform="matrix(0.04938271604938272,0,0,0.04938271604938272,56.19753086419754,0)" xlink:href="#aI"/><use transform="matrix(0.04938271604938272,0,0,0.04938271604938272,62.074074074074076,0)" xlink:href="#aA"/></g><path fill="#635dff" d="M27 0v-27h64v-190l-56 39v-29l58-41h29v221h61V0H27" id="aJ"/><g id="y"><use transform="matrix(0.06172839506172839,0,0,0.06172839506172839,0,0)" xlink:href="#W"/><use transform="matrix(0.06172839506172839,0,0,0.06172839506172839,15.987654320987653,0)" xlink:href="#aJ"/></g><path fill="#3a414a" d="M190 0L58-211 59 0H30v-248h39L202-35l-2-213h31V0h-41" id="aK"/><path fill="#3a414a" d="M206 0h-36l-40-164L89 0H53L-1-190h32L70-26l43-164h34l41 164 42-164h31" id="aL"/><g id="z"><use transform="matrix(0.06172839506172839,0,0,0.06172839506172839,0,0)" xlink:href="#aK"/><use transform="matrix(0.06172839506172839,0,0,0.06172839506172839,15.987654320987653,0)" xlink:href="#F"/><use transform="matrix(0.06172839506172839,0,0,0.06172839506172839,28.333333333333332,0)" xlink:href="#aL"/></g><g id="A"><use transform="matrix(0.06172839506172839,0,0,0.06172839506172839,0,0)" xlink:href="#au"/><use transform="matrix(0.06172839506172839,0,0,0.06172839506172839,14.814814814814813,0)" xlink:href="#M"/><use transform="matrix(0.06172839506172839,0,0,0.06172839506172839,27.160493827160494,0)" xlink:href="#E"/><use transform="matrix(0.06172839506172839,0,0,0.06172839506172839,34.50617283950617,0)" xlink:href="#ao"/><use transform="matrix(0.06172839506172839,0,0,0.06172839506172839,39.382716049382715,0)" xlink:href="#as"/><use transform="matrix(0.06172839506172839,0,0,0.06172839506172839,51.72839506172839,0)" xlink:href="#ap"/></g><path fill="#3a414a" d="M63-220v92h138v28H63V0H30v-248h175v28H63" id="aM"/><g id="B"><use transform="matrix(0.06172839506172839,0,0,0.06172839506172839,0,0)" xlink:href="#aM"/><use transform="matrix(0.06172839506172839,0,0,0.06172839506172839,13.518518518518517,0)" xlink:href="#L"/><use transform="matrix(0.06172839506172839,0,0,0.06172839506172839,25.864197530864196,0)" xlink:href="#G"/><use transform="matrix(0.06172839506172839,0,0,0.06172839506172839,30.74074074074074,0)" xlink:href="#G"/><use transform="matrix(0.06172839506172839,0,0,0.06172839506172839,35.617283950617285,0)" xlink:href="#L"/><use transform="matrix(0.06172839506172839,0,0,0.06172839506172839,47.96296296296296,0)" xlink:href="#aL"/><use transform="matrix(0.06172839506172839,0,0,0.06172839506172839,63.95061728395061,0)" xlink:href="#ao"/><use transform="matrix(0.06172839506172839,0,0,0.06172839506172839,68.82716049382715,0)" xlink:href="#as"/><use transform="matrix(0.06172839506172839,0,0,0.06172839506172839,81.17283950617283,0)" xlink:href="#ax"/></g><path fill="#635dff" d="M54-142c48-35 137-8 131 61C196 18 31 33 14-55l32-4c7 23 22 37 52 37 35-1 51-22 54-58 4-55-73-65-99-34H22l8-134h141v27H59" id="aN"/><g id="C"><use transform="matrix(0.06172839506172839,0,0,0.06172839506172839,0,0)" xlink:href="#W"/><use transform="matrix(0.06172839506172839,0,0,0.06172839506172839,15.987654320987653,0)" xlink:href="#aN"/></g><path fill="#ba23f6" d="M1034 0L896-382H333L196 0H0l510-1349h217L1228 0h-194zM847-531c-77-225-157-447-231-674-69 231-154 451-232 674h463" id="aO"/><path fill="#ba23f6" d="M528 20c-247 0-343-132-343-381v-721h180v686c-4 177 45 284 224 277 194-8 279-136 279-336v-627h181c3 360-6 732 6 1082H885c-4-54-7-126-8-185h-3C809-64 714 20 528 20" id="aP"/><path fill="#ba23f6" d="M682 16c-209 0-323-80-324-285v-671H190v-142h170l58-282h120v282h432v142H538v652c2 114 60 155 182 155 106 0 209-16 297-34v137C921-4 806 16 682 16" id="aQ"/><path fill="#ba23f6" d="M615-1102c343 0 484 203 482 560-1 347-147 562-488 562-336 0-475-219-479-562-4-349 156-560 485-560zm-8 989c240 0 301-180 301-429 0-245-55-427-290-427-236 0-299 181-299 427 0 243 61 429 288 429" id="aR"/><path fill="#ba23f6" d="M904-1102c199 0 220 177 220 381V0H956v-686c-3-114 0-215-60-264-70-33-125-4-158 71-26 56-39 140-39 252V0H531v-686c-3-114-1-215-61-264-78-41-136 24-157 84-24 69-39 159-39 259V0H105c-3-360 6-732-6-1082h149c6 50 3 123 8 175 36-100 83-195 216-195 135 0 166 79 196 196 42-105 93-196 236-196" id="aS"/><path fill="#ba23f6" d="M1000-272c3 95 12 159 101 161 21 0 41-3 59-7V-6c-44 10-86 16-139 16-141 2-191-84-197-217h-6C748-76 648 20 446 20c-207 0-318-120-318-322 0-266 194-348 454-354l236-4c12-191-40-305-222-305-140 0-220 47-232 172l-188-17c33-204 181-292 423-292 255 0 401 118 401 364v466zm-683-27c0 109 63 184 175 182 166-3 259-96 306-217 24-65 20-120 20-200-232 7-501-28-501 235" id="aT"/><path fill="#ba23f6" d="M617-1102c355 0 481 238 477 599H322c5 222 84 388 301 388 144 0 244-59 284-166l158 45C1002-72 854 20 623 20c-342 0-490-220-490-568 0-346 151-554 484-554zm291 461c-18-192-90-328-289-328-194 0-287 128-295 328h584" id="aU"/><g id="D"><use transform="matrix(0.010850694444444444,0,0,0.010850694444444444,0,0)" xlink:href="#aO"/><use transform="matrix(0.010850694444444444,0,0,0.010850694444444444,13.335503472222221,0)" xlink:href="#aP"/><use transform="matrix(0.010850694444444444,0,0,0.010850694444444444,26.671006944444443,0)" xlink:href="#aQ"/><use transform="matrix(0.010850694444444444,0,0,0.010850694444444444,40.006510416666664,0)" xlink:href="#aR"/><use transform="matrix(0.010850694444444444,0,0,0.010850694444444444,53.342013888888886,0)" xlink:href="#aS"/><use transform="matrix(0.010850694444444444,0,0,0.010850694444444444,66.67751736111111,0)" xlink:href="#aT"/><use transform="matrix(0.010850694444444444,0,0,0.010850694444444444,80.01302083333334,0)" xlink:href="#aQ"/><use transform="matrix(0.010850694444444444,0,0,0.010850694444444444,93.34852430555557,0)" xlink:href="#aU"/></g></defs></g></svg>